<mxfile host="app.diagrams.net" modified="2023-10-14T06:17:59.049Z" agent="Mozilla/5.0 (X11; Ubuntu; Linux x86_64; rv:109.0) Gecko/20100101 Firefox/117.0" version="22.0.4" etag="VZYe0MR9lj6iaTCTkElx" type="github">
  <diagram name="Page-1" id="iBL58C6KjC0O7NNmLcYG">
    <mxGraphModel>
      <root>
        <mxCell id="0" />
        <mxCell id="1" parent="0" />
      </root>
    </mxGraphModel>
  </diagram>
</mxfile>
